<svg version="1.1" id="Layer_1" xmlns="http://www.w3.org/2000/svg" xmlns:xlink="http://www.w3.org/1999/xlink" x="0px" y="0px"
	 width="100%" viewBox="0 0 578 578" enable-background="new 0 0 578 578" xml:space="preserve">
<path fill="#B90926" opacity="1.000000" stroke="none" 
	d="
M522.057007,155.955353 
	C539.412720,173.156418 556.760559,190.365433 574.140442,207.542053 
	C575.409485,208.796265 576.910706,209.815598 578.651978,210.972076 
	C579.000000,212.066666 579.000000,213.133347 579.000000,214.600006 
	C578.577393,214.929688 578.154846,214.859375 577.106689,214.667725 
	C573.743896,214.034149 571.009705,213.096786 568.268860,213.076874 
	C546.478577,212.918442 524.687012,212.934219 502.776672,212.654709 
	C502.123688,211.932785 501.589813,211.452713 500.892212,210.705963 
	C499.788544,209.334595 498.848663,208.229935 498.255737,207.030411 
	C499.614502,205.472260 500.933136,204.133957 501.588593,202.525421 
	C505.911652,191.917053 509.920715,181.177872 514.393066,170.634460 
	C516.541687,165.569183 519.477661,160.837891 522.057007,155.955353 
z"/>
<path fill="#B60925" opacity="1.000000" stroke="none" 
	d="
M0.999998,211.375000 
	C2.617316,210.108780 4.574168,209.545090 5.799031,208.275299 
	C17.077351,196.583374 28.096405,184.639267 39.467716,173.039917 
	C46.180050,166.192993 53.391804,159.835648 60.693665,153.516891 
	C64.809685,169.731873 68.545532,185.704224 72.467361,201.630768 
	C73.255775,204.832520 74.750633,207.860321 75.826935,211.215149 
	C75.525162,211.943008 75.316238,212.424057 74.632889,212.936890 
	C52.429729,212.979507 30.700869,212.960297 8.972454,213.049759 
	C6.905823,213.058258 4.841992,213.746811 2.776860,214.119629 
	C2.350763,213.906723 1.924666,213.693832 1.249285,213.740463 
	C1.000000,213.250000 1.000000,212.500000 0.999998,211.375000 
z"/>
<path fill="#90081E" opacity="1.000000" stroke="none" 
	d="
M2.824719,214.469635 
	C4.841992,213.746811 6.905823,213.058258 8.972454,213.049759 
	C30.700869,212.960297 52.429729,212.979507 75.090836,212.942871 
	C105.339912,212.870743 134.656616,212.824432 164.217896,213.049713 
	C164.646637,213.597916 164.876541,213.854385 165.008499,214.153992 
	C183.503952,256.145813 202.032425,298.123199 220.470551,340.140198 
	C242.515778,390.377136 264.482819,440.648376 286.486603,490.903503 
	C287.592255,493.428711 288.725281,495.941895 290.492737,499.915771 
	C291.291809,497.289368 291.639923,496.145111 292.071045,494.654602 
	C302.770874,470.313019 313.387573,446.317627 324.004608,422.322357 
	C333.344208,401.214172 342.684296,380.106171 352.356934,359.103882 
	C352.852051,360.674133 353.603027,362.403961 353.081757,363.560242 
	C349.541016,371.414124 345.550781,379.067657 342.093994,386.956055 
	C340.598877,390.367920 339.729279,394.139832 339.180389,397.838013 
	C338.961578,399.312164 339.993835,401.930298 341.141266,402.418640 
	C342.759277,403.107178 345.114380,402.626892 346.970856,402.052887 
	C349.435455,401.290894 351.723175,399.956940 354.086884,398.868713 
	C354.403961,399.350708 354.721008,399.832703 355.038055,400.314697 
	C354.356445,401.328278 353.437225,402.259277 353.049591,403.374969 
	C352.485565,404.998322 351.813293,406.830170 352.060272,408.439087 
	C352.610748,412.024963 352.572601,415.093597 348.586975,416.575012 
	C344.202576,418.204620 344.365356,414.718170 343.427063,412.121124 
	C341.480255,406.732666 339.039764,407.099609 334.525970,410.223480 
	C329.336151,413.815216 329.496002,419.620148 326.519562,423.973938 
	C323.781647,427.978851 321.766174,432.099670 322.879791,437.270325 
	C323.176300,438.647217 322.257294,440.435822 321.538971,441.854431 
	C318.959351,446.949097 316.118408,451.913055 313.601898,457.037231 
	C312.499390,459.282043 312.885864,461.499878 315.900269,461.865356 
	C320.274994,462.395691 324.682617,462.654816 329.076202,463.029633 
	C317.155823,475.110107 305.199615,487.155609 293.346680,499.301910 
	C291.100372,501.603912 289.571747,501.061157 287.580994,499.028778 
	C281.000183,492.310425 274.361633,485.645203 267.617096,479.091492 
	C257.948975,469.696869 247.998810,460.587799 238.461899,451.063599 
	C160.919479,373.624329 83.443771,296.118256 5.965679,218.614609 
	C4.817844,217.466385 3.898541,216.089706 2.824719,214.469635 
z"/>
<path fill="#90061C" opacity="1.000000" stroke="none" 
	d="
M329.332703,462.911621 
	C324.682617,462.654816 320.274994,462.395691 315.900269,461.865356 
	C312.885864,461.499878 312.499390,459.282043 313.601898,457.037231 
	C316.118408,451.913055 318.959351,446.949097 321.538971,441.854431 
	C322.257294,440.435822 323.176300,438.647217 322.879791,437.270325 
	C321.766174,432.099670 323.781647,427.978851 326.519562,423.973938 
	C329.496002,419.620148 329.336151,413.815216 334.525970,410.223480 
	C339.039764,407.099609 341.480255,406.732666 343.427063,412.121124 
	C344.365356,414.718170 344.202576,418.204620 348.586975,416.575012 
	C352.572601,415.093597 352.610748,412.024963 352.060272,408.439087 
	C351.813293,406.830170 352.485565,404.998322 353.049591,403.374969 
	C353.437225,402.259277 354.356445,401.328278 355.038055,400.314697 
	C354.721008,399.832703 354.403961,399.350708 354.086884,398.868713 
	C351.723175,399.956940 349.435455,401.290894 346.970856,402.052887 
	C345.114380,402.626892 342.759277,403.107178 341.141266,402.418640 
	C339.993835,401.930298 338.961578,399.312164 339.180389,397.838013 
	C339.729279,394.139832 340.598877,390.367920 342.093994,386.956055 
	C345.550781,379.067657 349.541016,371.414124 353.081757,363.560242 
	C353.603027,362.403961 352.852051,360.674133 352.402771,358.745361 
	C364.414124,330.111633 376.726868,301.948517 389.005188,273.770416 
	C396.369019,256.870850 403.679138,239.947830 411.220612,222.837708 
	C411.591797,222.105942 411.755768,221.571808 411.963318,220.809753 
	C412.006927,220.581818 412.043182,220.119125 412.273010,219.909546 
	C412.692444,219.119843 412.882050,218.539703 413.220642,217.700989 
	C413.622437,216.699570 413.875214,215.956726 414.365051,214.985794 
	C415.367401,214.020325 416.132690,213.282944 417.269440,212.667328 
	C418.412567,212.795486 419.184265,212.801910 420.409790,212.839600 
	C423.593719,212.858429 426.323792,212.846008 429.481445,212.886429 
	C431.921906,212.907211 433.934875,212.875168 436.396912,212.867462 
	C439.244476,212.869766 441.642975,212.847717 444.403931,212.877335 
	C445.495880,212.895111 446.225342,212.861206 447.421722,212.855530 
	C452.272064,212.866882 456.655426,212.850021 461.402039,212.884323 
	C462.496246,212.903107 463.227203,212.870728 464.425018,212.865784 
	C469.276581,212.878891 473.661285,212.864563 478.501404,212.901398 
	C482.957031,212.924789 486.957214,212.897003 491.413025,212.892700 
	C494.902863,212.886871 497.937073,212.857590 501.290405,212.877365 
	C502.038269,212.916473 502.467041,212.906525 502.895844,212.896545 
	C524.687012,212.934219 546.478577,212.918442 568.268860,213.076874 
	C571.009705,213.096786 573.743896,214.034149 576.758789,214.816025 
	C562.496277,229.742310 547.994080,244.436966 533.408020,259.047760 
	C502.918579,289.588715 472.389160,320.089752 441.867676,350.598724 
	C424.144440,368.314728 406.404755,386.014252 388.161255,404.002563 
	C387.441681,404.547119 387.233337,404.810272 387.024963,405.073425 
	C386.956726,405.396851 386.787048,405.653198 386.083923,406.064148 
	C385.447479,406.548370 385.243073,406.810822 385.038696,407.073303 
	C380.910522,411.291016 376.782318,415.508759 372.044800,419.938934 
	C370.966736,420.790955 370.497986,421.430481 370.029236,422.070007 
	C365.576080,426.623108 361.122894,431.176239 356.059814,435.941711 
	C354.978363,436.795532 354.506866,437.436981 354.035400,438.078430 
	C350.906036,441.295105 347.776703,444.511780 343.942261,447.870667 
	C335.676086,448.499878 331.531006,452.956055 331.055542,461.108704 
	C330.566742,461.670319 330.077942,462.231964 329.332703,462.911621 
z"/>
<path fill="#90081E" opacity="1.000000" stroke="none" 
	d="
M331.348877,460.947144 
	C331.531006,452.956055 335.676086,448.499878 343.646545,448.020569 
	C339.917999,452.280670 335.780090,456.533112 331.348877,460.947144 
z"/>
<path fill="#90081E" opacity="1.000000" stroke="none" 
	d="
M354.301575,437.949554 
	C354.506866,437.436981 354.978363,436.795532 355.766022,436.093628 
	C355.577362,436.628967 355.072540,437.224823 354.301575,437.949554 
z"/>
<path fill="#90081E" opacity="1.000000" stroke="none" 
	d="
M370.295227,421.942261 
	C370.497986,421.430481 370.966736,420.790955 371.749146,420.088318 
	C371.562286,420.621674 371.061768,421.218079 370.295227,421.942261 
z"/>
<path fill="#90081E" opacity="1.000000" stroke="none" 
	d="
M387.256348,404.959839 
	C387.233337,404.810272 387.441681,404.547119 387.867188,404.152618 
	C387.885468,404.296265 387.686584,404.571259 387.256348,404.959839 
z"/>
<path fill="#90081E" opacity="1.000000" stroke="none" 
	d="
M385.267212,406.959686 
	C385.243073,406.810822 385.447479,406.548370 385.867737,406.156311 
	C385.887634,406.299835 385.691681,406.572968 385.267212,406.959686 
z"/>
<path fill="#8F061C" opacity="1.000000" stroke="none" 
	d="
M75.919785,210.968323 
	C74.750633,207.860321 73.255775,204.832520 72.467361,201.630768 
	C68.545532,185.704224 64.809685,169.731873 60.998955,153.370331 
	C70.187210,143.591858 79.379639,134.213531 88.583740,124.846687 
	C102.914429,110.262634 117.248993,95.682388 131.607422,81.125679 
	C132.047791,80.679214 132.771164,80.511879 133.966660,80.173630 
	C134.769897,80.181198 134.969086,80.229538 135.127563,80.560776 
	C135.108170,81.032997 135.129501,81.222336 135.228897,81.774353 
	C140.220810,103.801384 145.134644,125.465759 149.943100,147.383270 
	C149.820786,148.000366 149.803848,148.364319 149.436035,148.773666 
	C147.953903,149.484055 146.687363,149.993088 145.712677,150.838562 
	C137.435196,158.018829 129.266190,165.324677 120.958511,172.469452 
	C105.984360,185.347488 90.936722,198.140060 75.919785,210.968323 
z"/>
<path fill="#90061C" opacity="1.000000" stroke="none" 
	d="
M521.910034,155.656189 
	C519.477661,160.837891 516.541687,165.569183 514.393066,170.634460 
	C509.920715,181.177872 505.911652,191.917053 501.588593,202.525421 
	C500.933136,204.133957 499.614502,205.472260 497.975403,206.847473 
	C491.714111,201.858780 485.900970,197.147537 480.480530,192.021057 
	C465.763306,178.101944 451.231750,163.986679 436.564423,150.014404 
	C435.176422,148.692184 433.350555,147.829605 431.672485,146.454407 
	C431.352203,145.380356 431.087433,144.605515 430.956970,143.479767 
	C436.333649,123.085564 441.576019,103.042236 446.892029,82.660027 
	C447.018066,81.862427 447.070526,81.403709 447.122955,80.944984 
	C470.366425,104.088554 493.610840,127.231209 516.851379,150.377701 
	C518.503174,152.022842 520.126526,153.696564 521.910034,155.656189 
z"/>
<path fill="#EF1938" opacity="1.000000" stroke="none" 
	d="
M447.028229,80.769547 
	C447.070526,81.403709 447.018066,81.862427 446.542175,82.677261 
	C445.070984,83.483231 443.929291,83.789383 442.989380,84.404053 
	C421.259369,98.614395 399.536133,112.835312 377.878143,127.154877 
	C376.628723,127.980949 375.943054,129.659637 374.578918,130.931183 
	C373.349976,130.936325 372.537079,130.951797 371.589294,130.985321 
	C371.454376,131.003387 371.182892,131.023926 370.994293,130.728302 
	C369.474121,129.448273 368.211243,128.350281 366.800476,127.496773 
	C349.878418,117.258850 332.934418,107.057182 315.759338,96.621338 
	C307.355011,91.230507 299.187500,86.064362 291.041687,80.747787 
	C291.063385,80.597374 291.139984,80.303230 291.593201,80.221489 
	C318.655334,80.102684 345.264221,80.020470 371.873077,80.041687 
	C396.814819,80.061584 421.756531,80.190956 446.698242,80.272156 
	C446.698242,80.272156 446.933502,80.594109 447.028229,80.769547 
z"/>
<path fill="#FFDAE3" opacity="1.000000" stroke="none" 
	d="
M446.743958,79.814415 
	C421.756531,80.190956 396.814819,80.061584 371.873077,80.041687 
	C345.264221,80.020470 318.655334,80.102684 291.115997,80.128418 
	C242.823486,80.089188 195.461426,80.054802 148.099365,80.044388 
	C143.789017,80.043442 139.478622,80.196396 135.168259,80.277885 
	C134.969086,80.229538 134.769897,80.181198 134.280548,80.030502 
	C135.329849,79.621262 136.669174,79.046272 138.008759,79.045677 
	C239.956665,79.000221 341.904572,78.998985 443.852509,79.011177 
	C444.831573,79.011299 445.810608,79.236542 446.743958,79.814415 
z"/>
<path fill="#EE1637" opacity="1.000000" stroke="none" 
	d="
M431.727997,146.753616 
	C433.350555,147.829605 435.176422,148.692184 436.564423,150.014404 
	C451.231750,163.986679 465.763306,178.101944 480.480530,192.021057 
	C485.900970,197.147537 491.714111,201.858780 497.628479,206.942337 
	C498.848663,208.229935 499.788544,209.334595 500.876343,211.016006 
	C501.006592,212.004593 500.988953,212.416443 500.971313,212.828293 
	C497.937073,212.857590 494.902863,212.886871 491.077637,212.677322 
	C486.206421,212.575745 482.126221,212.712982 478.045990,212.850235 
	C473.661285,212.864563 469.276581,212.878891 464.213867,212.691101 
	C462.703522,212.603699 461.871155,212.718430 461.038818,212.833160 
	C456.655426,212.850021 452.272064,212.866882 447.210571,212.682556 
	C445.702118,212.596146 444.871765,212.710892 444.041443,212.825653 
	C441.642975,212.847717 439.244476,212.869766 436.099243,212.667603 
	C433.252960,212.573456 431.153412,212.703522 429.053894,212.833588 
	C426.323792,212.846008 423.593719,212.858429 420.200256,212.630463 
	C418.742462,211.255630 417.948090,210.121170 417.109924,208.593903 
	C417.728821,205.288239 418.362335,202.368362 419.059082,199.463669 
	C423.274017,181.891724 427.503418,164.323242 431.727997,146.753616 
z"/>
<path fill="#D90C2E" opacity="1.000000" stroke="none" 
	d="
M501.290405,212.877365 
	C500.988953,212.416443 501.006592,212.004593 501.040100,211.282684 
	C501.589813,211.452713 502.123688,211.932785 502.776672,212.654724 
	C502.467041,212.906525 502.038269,212.916473 501.290405,212.877365 
z"/>
<path fill="#EF1737" opacity="1.000000" stroke="none" 
	d="
M75.826942,211.215149 
	C90.936722,198.140060 105.984360,185.347488 120.958511,172.469452 
	C129.266190,165.324677 137.435196,158.018829 145.712677,150.838562 
	C146.687363,149.993088 147.953903,149.484055 149.665359,149.117676 
	C150.528030,150.366257 150.875046,151.302261 151.083481,152.268188 
	C155.385330,172.204605 159.671402,192.144424 163.964050,212.257202 
	C163.967468,212.430832 163.973312,212.778137 163.973312,212.778137 
	C134.656616,212.824432 105.339912,212.870743 75.565262,212.911072 
	C75.316238,212.424057 75.525162,211.943008 75.826942,211.215149 
z"/>
<path fill="#D60B2D" opacity="1.000000" stroke="none" 
	d="
M164.217896,213.049728 
	C163.973312,212.778137 163.967468,212.430832 164.218460,212.233353 
	C164.639236,212.024963 164.809006,212.014069 165.449341,212.002808 
	C181.234894,212.000351 196.551361,212.111420 211.863770,211.910858 
	C215.378006,211.864838 217.968277,212.481216 219.531952,216.251205 
	C220.661575,218.029129 221.573044,220.712433 222.546616,220.735168 
	C234.794128,221.021149 247.050598,220.922852 259.364563,220.922852 
	C259.364563,217.562134 259.364563,214.766815 259.810028,211.962204 
	C270.180298,211.994858 280.105103,212.036835 290.021271,212.539124 
	C290.008514,221.440460 289.884003,229.884659 290.105896,238.319717 
	C290.148285,239.931091 291.556580,241.506546 292.175903,243.403931 
	C289.267670,246.358429 286.494995,248.983963 283.773346,251.661301 
	C276.756317,258.564026 271.751373,266.598846 269.642578,276.345764 
	C266.346069,291.582581 273.086243,302.581726 288.364166,306.514069 
	C290.653137,311.843262 291.329102,316.862915 287.707062,321.864502 
	C277.734070,323.608337 270.874359,328.852112 267.249084,337.842712 
	C262.584503,349.410858 266.956116,367.489014 287.356842,371.430176 
	C288.433319,373.601257 289.891571,375.553589 289.898987,377.511414 
	C290.038483,414.422638 289.971680,451.334595 290.094604,488.245911 
	C290.102081,490.499634 291.328674,492.749268 291.988068,495.000824 
	C291.639923,496.145111 291.291809,497.289368 290.492737,499.915771 
	C288.725281,495.941895 287.592255,493.428711 286.486603,490.903503 
	C264.482819,440.648376 242.515778,390.377136 220.470551,340.140198 
	C202.032425,298.123199 183.503952,256.145813 165.008499,214.153992 
	C164.876541,213.854385 164.646637,213.597916 164.217896,213.049728 
z"/>
<path fill="#EE1636" opacity="1.000000" stroke="none" 
	d="
M288.095825,321.743866 
	C291.329102,316.862915 290.653137,311.843262 288.790710,306.445465 
	C302.683807,306.029510 311.015259,298.952057 312.429504,285.490814 
	C313.061371,279.476654 315.427979,274.675049 319.722961,270.687531 
	C327.155243,263.787231 334.527039,256.813995 342.148560,250.127106 
	C353.426147,240.232452 360.167664,228.120453 361.589111,212.832718 
	C368.299377,212.430420 374.657043,212.225861 381.345886,212.266663 
	C386.421143,212.674698 391.168335,213.023483 395.908508,212.945435 
	C400.273041,212.873550 404.630005,212.342789 409.391296,212.010590 
	C410.861572,212.008240 411.930878,212.009476 413.050476,212.346252 
	C413.443176,213.525803 413.785614,214.369843 414.128021,215.213882 
	C413.875214,215.956726 413.622437,216.699570 412.991760,217.912109 
	C412.423676,218.960922 412.233429,219.540024 412.043182,220.119125 
	C412.043182,220.119125 412.006927,220.581818 411.764587,221.009521 
	C411.352661,221.969940 411.183044,222.502640 411.013397,223.035355 
	C403.679138,239.947830 396.369019,256.870850 389.005188,273.770416 
	C376.726868,301.948517 364.414124,330.111633 352.070007,358.639587 
	C342.684296,380.106171 333.344208,401.214172 324.004608,422.322357 
	C313.387573,446.317627 302.770874,470.313019 292.071045,494.654602 
	C291.328674,492.749268 290.102081,490.499634 290.094604,488.245911 
	C289.971680,451.334595 290.038483,414.422638 289.898987,377.511414 
	C289.891571,375.553589 288.433319,373.601257 287.797729,371.372314 
	C303.198029,372.858063 317.164246,360.238586 315.044983,343.228210 
	C313.479034,330.658844 303.172668,322.397461 288.095825,321.743866 
z"/>
<path fill="#D90C2E" opacity="1.000000" stroke="none" 
	d="
M478.501404,212.901398 
	C482.126221,212.712982 486.206421,212.575745 490.622009,212.653870 
	C486.957214,212.897003 482.957031,212.924789 478.501404,212.901398 
z"/>
<path fill="#EE1637" opacity="1.000000" stroke="none" 
	d="
M414.365051,214.985794 
	C413.785614,214.369843 413.443176,213.525803 413.372559,212.279999 
	C414.164459,211.501495 414.684540,211.124771 415.487366,210.760544 
	C416.146545,210.792603 416.523010,210.812134 416.925995,211.118774 
	C416.934357,211.785782 416.916168,212.165665 416.897980,212.545563 
	C416.132690,213.282944 415.367401,214.020325 414.365051,214.985794 
z"/>
<path fill="#D90C2E" opacity="1.000000" stroke="none" 
	d="
M429.481445,212.886429 
	C431.153412,212.703522 433.252960,212.573456 435.650146,212.643265 
	C433.934875,212.875168 431.921906,212.907211 429.481445,212.886429 
z"/>
<path fill="#D90C2E" opacity="1.000000" stroke="none" 
	d="
M417.269440,212.667328 
	C416.916168,212.165665 416.934357,211.785782 416.893188,210.804047 
	C416.940430,209.797058 417.047089,209.391876 417.153717,208.986710 
	C417.948090,210.121170 418.742462,211.255630 419.746399,212.599213 
	C419.184265,212.801910 418.412567,212.795486 417.269440,212.667328 
z"/>
<path fill="#D90C2E" opacity="1.000000" stroke="none" 
	d="
M461.402039,212.884338 
	C461.871155,212.718430 462.703522,212.603699 463.747009,212.663651 
	C463.227203,212.870728 462.496246,212.903107 461.402039,212.884338 
z"/>
<path fill="#D90C2E" opacity="1.000000" stroke="none" 
	d="
M444.403931,212.877319 
	C444.871765,212.710892 445.702118,212.596146 446.743591,212.654358 
	C446.225342,212.861206 445.495880,212.895111 444.403931,212.877319 
z"/>
<path fill="#EE1637" opacity="1.000000" stroke="none" 
	d="
M411.220612,222.837708 
	C411.183044,222.502640 411.352661,221.969940 411.721008,221.237457 
	C411.755768,221.571808 411.591797,222.105942 411.220612,222.837708 
z"/>
<path fill="#EE1637" opacity="1.000000" stroke="none" 
	d="
M412.273010,219.909546 
	C412.233429,219.540024 412.423676,218.960922 412.842773,218.170700 
	C412.882050,218.539703 412.692444,219.119843 412.273010,219.909546 
z"/>
<path fill="#C80B2A" opacity="1.000000" stroke="none" 
	d="
M135.127563,80.560776 
	C139.478622,80.196396 143.789017,80.043442 148.099365,80.044388 
	C195.461426,80.054802 242.823486,80.089188 290.662781,80.210159 
	C291.139984,80.303230 291.063385,80.597374 290.752441,80.817062 
	C289.943787,81.337784 289.446075,81.638824 288.608459,82.016693 
	C263.057617,97.292999 237.836792,112.476151 212.668243,127.745453 
	C211.542221,128.428589 210.890762,129.893951 209.730682,130.984528 
	C209.251526,130.964264 209.059937,130.954437 208.841080,130.603500 
	C207.634338,129.182480 206.573578,127.922997 205.256073,127.051811 
	C196.807297,121.465195 188.306305,115.957489 179.814728,110.435730 
	C164.929688,100.756538 150.039093,91.085899 135.150818,81.411682 
	C135.129501,81.222336 135.108170,81.032997 135.127563,80.560776 
z"/>
<path fill="#FCE0E4" opacity="1.000000" stroke="none" 
	d="
M135.228897,81.774353 
	C150.039093,91.085899 164.929688,100.756538 179.814728,110.435730 
	C188.306305,115.957489 196.807297,121.465195 205.256073,127.051811 
	C206.573578,127.922997 207.634338,129.182480 208.639877,130.627045 
	C208.465942,130.991684 208.090897,131.144760 207.697159,131.075623 
	C203.802841,131.963074 200.294830,132.893356 196.802963,133.880722 
	C181.215607,138.288284 165.632874,142.712143 150.048477,147.130127 
	C145.134644,125.465759 140.220810,103.801384 135.228897,81.774353 
z"/>
<path fill="#FC788A" opacity="1.000000" stroke="none" 
	d="
M149.943100,147.383270 
	C165.632874,142.712143 181.215607,138.288284 196.802963,133.880722 
	C200.294830,132.893356 203.802841,131.963074 207.679001,131.428665 
	C196.074112,153.663956 184.051376,175.454056 172.146317,197.308258 
	C169.541855,202.089279 167.356918,207.098846 164.978790,212.003159 
	C164.809006,212.014069 164.639236,212.024963 164.215027,212.059723 
	C159.671402,192.144424 155.385330,172.204605 151.083481,152.268188 
	C150.875046,151.302261 150.528030,150.366257 150.016235,149.072296 
	C149.803848,148.364319 149.820786,148.000366 149.943100,147.383270 
z"/>
<path fill="#FCE0E4" opacity="1.000000" stroke="none" 
	d="
M417.109924,208.593903 
	C417.047089,209.391876 416.940430,209.797058 416.866638,210.516953 
	C416.523010,210.812134 416.146545,210.792603 415.414856,210.413849 
	C400.614502,183.692184 386.169373,157.329727 371.724243,130.967255 
	C372.537079,130.951797 373.349976,130.936325 374.896484,131.127930 
	C386.783478,133.901108 397.931580,136.490311 409.092041,139.025070 
	C416.326263,140.668091 423.578491,142.231537 430.822662,143.830658 
	C431.087433,144.605515 431.352203,145.380356 431.672485,146.454407 
	C427.503418,164.323242 423.274017,181.891724 419.059082,199.463669 
	C418.362335,202.368362 417.728821,205.288239 417.109924,208.593903 
z"/>
<path fill="#ED1436" opacity="1.000000" stroke="none" 
	d="
M430.956970,143.479767 
	C423.578491,142.231537 416.326263,140.668091 409.092041,139.025070 
	C397.931580,136.490311 386.783478,133.901108 375.312561,131.138275 
	C375.943054,129.659637 376.628723,127.980949 377.878143,127.154877 
	C399.536133,112.835312 421.259369,98.614395 442.989380,84.404053 
	C443.929291,83.789383 445.070984,83.483231 446.468567,83.016136 
	C441.576019,103.042236 436.333649,123.085564 430.956970,143.479767 
z"/>
<path fill="#D90C2E" opacity="1.000000" stroke="none" 
	d="
M371.589294,130.985321 
	C386.169373,157.329727 400.614502,183.692184 415.132141,210.401337 
	C414.684540,211.124771 414.164459,211.501495 413.322266,211.944489 
	C411.930878,212.009476 410.861572,212.008240 408.923920,212.005951 
	C399.041962,212.010361 390.028320,212.015823 381.014709,212.021301 
	C374.657043,212.225861 368.299377,212.430420 361.514465,212.375977 
	C361.221344,202.874832 360.205536,193.586716 355.552704,185.658646 
	C350.499115,177.047714 343.929230,169.326675 338.246521,160.959915 
	C339.555939,159.453293 340.516144,158.065491 341.742340,156.977371 
	C351.527405,148.294174 361.362885,139.667755 371.182892,131.023926 
	C371.182892,131.023926 371.454376,131.003387 371.589294,130.985321 
z"/>
<path fill="#97061D" opacity="1.000000" stroke="none" 
	d="
M370.994293,130.728302 
	C361.362885,139.667755 351.527405,148.294174 341.742340,156.977371 
	C340.516144,158.065491 339.555939,159.453293 337.898804,160.860657 
	C328.968597,156.460785 320.612091,151.902496 312.649414,147.241699 
	C317.485779,144.086990 319.469269,138.397568 318.397186,133.437439 
	C317.923798,131.247314 318.414459,128.803513 318.712280,126.506607 
	C318.942230,124.733452 319.902130,123.016037 319.933594,121.262993 
	C320.050201,114.770645 321.225342,108.137032 317.282166,102.118027 
	C316.347900,100.691917 316.398560,98.620567 315.996155,96.846024 
	C332.934418,107.057182 349.878418,117.258850 366.800476,127.496773 
	C368.211243,128.350281 369.474121,129.448273 370.994293,130.728302 
z"/>
<path fill="#9C061F" opacity="1.000000" stroke="none" 
	d="
M315.759338,96.621338 
	C316.398560,98.620567 316.347900,100.691917 317.282166,102.118027 
	C321.225342,108.137032 320.050201,114.770645 319.933594,121.262993 
	C319.902130,123.016037 318.942230,124.733452 318.712280,126.506607 
	C318.414459,128.803513 317.923798,131.247314 318.397186,133.437439 
	C319.469269,138.397568 317.485779,144.086990 312.590637,147.248840 
	C312.138031,147.358475 312.094147,147.248627 311.799896,146.966766 
	C310.450623,146.498337 309.395569,146.311752 307.961426,146.164612 
	C301.392914,145.398346 295.203491,144.592651 289.093445,143.390564 
	C289.447083,141.198334 289.953156,139.403336 289.959717,137.606537 
	C290.021484,120.628807 290.025909,103.650635 289.953644,86.672989 
	C289.946930,85.093880 289.298706,83.517502 288.948334,81.939857 
	C289.446075,81.638824 289.943787,81.337784 290.730774,80.967476 
	C299.187500,86.064362 307.355011,91.230507 315.759338,96.621338 
z"/>
<path fill="#FDFCFD" opacity="1.000000" stroke="none" 
	d="
M289.014099,143.786957 
	C295.203491,144.592651 301.392914,145.398346 308.267822,146.426682 
	C310.000275,146.849075 311.047211,147.048843 312.094147,147.248627 
	C312.094147,147.248627 312.138031,147.358475 312.196808,147.351349 
	C320.612091,151.902496 328.968597,156.460785 337.672821,161.118347 
	C343.929230,169.326675 350.499115,177.047714 355.552704,185.658646 
	C360.205536,193.586716 361.221344,202.874832 361.161865,212.573700 
	C360.167664,228.120453 353.426147,240.232452 342.148560,250.127106 
	C334.527039,256.813995 327.155243,263.787231 319.722961,270.687531 
	C315.427979,274.675049 313.061371,279.476654 312.429504,285.490814 
	C311.015259,298.952057 302.683807,306.029510 288.527985,306.183838 
	C273.086243,302.581726 266.346069,291.582581 269.642578,276.345764 
	C271.751373,266.598846 276.756317,258.564026 283.773346,251.661301 
	C286.494995,248.983963 289.267670,246.358429 292.484863,243.310150 
	C300.028625,236.331253 307.434662,230.059845 314.015259,223.017166 
	C316.579407,220.272964 317.284363,215.791580 318.930084,211.687805 
	C318.816925,205.248474 316.482300,200.158234 312.132812,195.577179 
	C307.119019,192.456940 302.235168,189.656281 296.989380,186.606506 
	C276.778015,183.333420 261.710266,193.690857 259.364563,211.971512 
	C259.364563,214.766815 259.364563,217.562134 259.364563,220.922852 
	C247.050598,220.922852 234.794128,221.021149 222.546616,220.735168 
	C221.573044,220.712433 220.661575,218.029129 219.572998,215.795013 
	C219.780701,209.227097 219.558060,203.339340 220.604355,197.686447 
	C223.408463,182.536636 231.929214,170.623779 243.417175,160.269684 
	C257.035858,149.703049 272.294922,144.724045 289.014099,143.786957 
z"/>
<path fill="#C50828" opacity="1.000000" stroke="none" 
	d="
M243.086136,160.400131 
	C231.929214,170.623779 223.408463,182.536636 220.604355,197.686447 
	C219.558060,203.339340 219.780701,209.227097 219.383698,215.463959 
	C217.968277,212.481216 215.378006,211.864838 211.863770,211.910858 
	C196.551361,212.111420 181.234894,212.000351 165.449341,212.002808 
	C167.356918,207.098846 169.541855,202.089279 172.146317,197.308258 
	C184.051376,175.454056 196.074112,153.663956 208.072739,131.497803 
	C208.090897,131.144760 208.465942,130.991684 208.667145,130.968140 
	C209.059937,130.954437 209.251526,130.964264 210.037872,131.123077 
	C217.921326,137.524261 225.280075,143.697342 232.469681,150.061493 
	C236.164185,153.331833 239.556992,156.942993 243.086136,160.400131 
z"/>
<path fill="#FDFBFD" opacity="1.000000" stroke="none" 
	d="
M287.707062,321.864502 
	C303.172668,322.397461 313.479034,330.658844 315.044983,343.228210 
	C317.164246,360.238586 303.198029,372.858063 287.504089,371.156158 
	C266.956116,367.489014 262.584503,349.410858 267.249084,337.842712 
	C270.874359,328.852112 277.734070,323.608337 287.707062,321.864502 
z"/>
<path fill="#A00720" opacity="1.000000" stroke="none" 
	d="
M259.810028,211.962204 
	C261.710266,193.690857 276.778015,183.333420 296.526093,186.636719 
	C291.130737,186.137650 289.562714,188.538559 289.902405,193.636810 
	C290.307068,199.710052 289.980927,205.831955 289.989410,211.967926 
	C290.007446,212.003067 290.029907,212.078796 290.029907,212.078796 
	C280.105103,212.036835 270.180298,211.994858 259.810028,211.962204 
z"/>
<path fill="#EB1537" opacity="1.000000" stroke="none" 
	d="
M318.836182,212.101471 
	C317.284363,215.791580 316.579407,220.272964 314.015259,223.017166 
	C307.434662,230.059845 300.028625,236.331253 292.643677,243.004776 
	C291.556580,241.506546 290.148285,239.931091 290.105896,238.319717 
	C289.884003,229.884659 290.008514,221.440460 290.021271,212.539124 
	C290.029907,212.078796 290.007446,212.003067 290.388000,211.986328 
	C291.829926,211.944092 292.891357,211.918579 294.424866,211.929657 
	C302.876709,212.011307 310.856445,212.056396 318.836182,212.101471 
z"/>
<path fill="#EE1637" opacity="1.000000" stroke="none" 
	d="
M381.345886,212.266663 
	C390.028320,212.015823 399.041962,212.010361 408.522949,212.009521 
	C404.630005,212.342789 400.273041,212.873550 395.908508,212.945435 
	C391.168335,213.023483 386.421143,212.674698 381.345886,212.266663 
z"/>
<path fill="#8F051C" opacity="1.000000" stroke="none" 
	d="
M243.417175,160.269684 
	C239.556992,156.942993 236.164185,153.331833 232.469681,150.061493 
	C225.280075,143.697342 217.921326,137.524261 210.325439,131.133499 
	C210.890762,129.893951 211.542221,128.428589 212.668243,127.745453 
	C237.836792,112.476151 263.057617,97.292999 288.608459,82.016693 
	C289.298706,83.517502 289.946930,85.093880 289.953644,86.672989 
	C290.025909,103.650635 290.021484,120.628807 289.959717,137.606537 
	C289.953156,139.403336 289.447083,141.198334 289.093445,143.390549 
	C272.294922,144.724045 257.035858,149.703049 243.417175,160.269684 
z"/>
<path fill="#97061D" opacity="1.000000" stroke="none" 
	d="
M311.799896,146.966766 
	C311.047211,147.048843 310.000275,146.849075 308.646942,146.387238 
	C309.395569,146.311752 310.450623,146.498337 311.799896,146.966766 
z"/>
<path fill="#AD0722" opacity="1.000000" stroke="none" 
	d="
M293.952759,211.893051 
	C292.891357,211.918579 291.829926,211.944092 290.369934,211.951202 
	C289.980927,205.831955 290.307068,199.710052 289.902405,193.636810 
	C289.562714,188.538559 291.130737,186.137650 296.888031,186.885834 
	C302.235168,189.656281 307.119019,192.456940 311.755005,195.615921 
	C307.520081,198.969620 303.367859,201.774475 299.608704,205.032822 
	C297.400421,206.946930 295.817139,209.582153 293.952759,211.893051 
z"/>
<path fill="#C50828" opacity="1.000000" stroke="none" 
	d="
M294.424866,211.929626 
	C295.817139,209.582153 297.400421,206.946930 299.608704,205.032822 
	C303.367859,201.774475 307.520081,198.969620 311.884949,195.935516 
	C316.482300,200.158234 318.816925,205.248474 318.930084,211.687805 
	C310.856445,212.056396 302.876709,212.011307 294.424866,211.929626 
z"/>
</svg>